<svg width="23" height="23" viewBox="0 0 23 23" fill="none" xmlns="http://www.w3.org/2000/svg">
<path d="M6.27629 4.42422L6.26111 4.42114L6.24568 4.41995C5.62394 4.37215 5.0695 4.54753 4.66732 4.9497C4.30438 5.31265 4.12016 5.8328 4.16154 6.42653C4.16816 6.6234 4.20985 6.8992 4.24717 7.11539C4.26641 7.22688 4.28528 7.32689 4.29933 7.39902C4.30636 7.43513 4.31221 7.46434 4.31631 7.48462L4.32111 7.50811L4.32177 7.51132C4.53819 8.82167 5.17747 10.8143 5.92773 12.7697C6.67613 14.7202 7.54438 16.658 8.23485 17.877C8.2387 17.8861 8.24261 17.8942 8.24542 17.9C8.25311 17.9158 8.2634 17.9354 8.27503 17.957C8.29875 18.001 8.33292 18.0621 8.37503 18.1353C8.45944 18.2819 8.57808 18.4813 8.71348 18.6974C8.98022 19.1232 9.32616 19.6372 9.60651 19.9306L9.60647 19.9306L9.61048 19.9346L9.68127 20.0054C10.5358 20.8599 11.6798 21.3655 12.6647 21.2511L12.6652 21.2511C12.932 21.2196 13.3878 21.1038 13.7463 20.9704C13.9225 20.9049 14.0987 20.8266 14.2186 20.7403C14.2728 20.7013 14.3542 20.6341 14.3937 20.5341C14.4165 20.4766 14.4265 20.4047 14.4046 20.3288C14.3834 20.2553 14.3393 20.2022 14.2971 20.1665C12.8202 18.9179 12.3131 17.5528 12.3019 16.3719C12.2906 15.1792 12.7846 14.1604 13.3313 13.6137C13.9052 13.0398 14.9859 12.5419 16.218 12.5414C17.4377 12.5409 18.8052 13.0283 19.9662 14.4237C20.0232 14.4922 20.1233 14.5768 20.2663 14.5713C20.4031 14.566 20.493 14.4805 20.5391 14.4244C20.6306 14.313 20.6927 14.1422 20.7372 13.9965C20.7851 13.8392 20.8259 13.663 20.8593 13.5096C20.8708 13.4572 20.8812 13.4085 20.8907 13.3638C20.9102 13.2722 20.926 13.1979 20.9396 13.145L20.9397 13.145L20.9415 13.1369C21.0677 12.567 20.9541 11.8944 20.6595 11.252L20.6596 11.2519L20.6556 11.2439C20.4046 10.7444 20.0732 10.2912 19.6636 9.88155L19.6636 9.88148L19.6586 9.87673C19.2149 9.45697 18.2517 8.85625 17.8643 8.63586C16.5911 7.88826 14.5729 6.98652 12.5663 6.22002C10.563 5.45482 8.54563 4.81457 7.27158 4.59825C7.06115 4.55558 6.83872 4.51754 6.65572 4.48739C6.59476 4.47735 6.53933 4.46836 6.4904 4.46042C6.38665 4.44359 6.31215 4.43151 6.27629 4.42422Z" fill="#8A3FFC" stroke="white" stroke-width="0.5"/>
</svg>
